<svg id="click" xmlns="http://www.w3.org/2000/svg" width="89.866" height="89.862" viewBox="0 0 89.866 89.862">
  <path id="Path_130" data-name="Path 130" d="M44.931,0a44.931,44.931,0,1,0,0,89.862,46.168,46.168,0,0,0,8.237-.749L50.1,79.9a10.17,10.17,0,0,1-1.423,1.161V75.6L41.711,54.741a10.1,10.1,0,0,1-.524-3.295v7.6a82.6,82.6,0,0,0-10.334,1.011A80.358,80.358,0,0,1,29.542,48.6H41.187v2.846a10.356,10.356,0,0,1,10.3-10.259,11.019,11.019,0,0,1,3.295.524L75.409,48.6h6.777a20.217,20.217,0,0,1-.3,2.172l7.226,2.4a46.169,46.169,0,0,0,.749-8.237A44.967,44.967,0,0,0,44.931,0ZM41.187,66.535V81.063c-3.22-2.172-6.29-6.964-8.462-13.741a76.329,76.329,0,0,1,8.462-.786ZM13.479,24.675a58.294,58.294,0,0,0,10.035,3.594,85.155,85.155,0,0,0-1.46,12.843H7.676a37.483,37.483,0,0,1,5.8-16.437ZM7.676,48.6H22.054a86.642,86.642,0,0,0,1.46,12.993,58.294,58.294,0,0,0-10.035,3.594A37.3,37.3,0,0,1,7.676,48.6ZM29.729,79.116a37.356,37.356,0,0,1-11.42-7.9,45.152,45.152,0,0,1,7-2.359A48.9,48.9,0,0,0,29.729,79.116ZM25.311,21.005a45.151,45.151,0,0,1-7-2.359,37.356,37.356,0,0,1,11.42-7.9A48.9,48.9,0,0,0,25.311,21.005ZM41.187,41.112H29.542A78.811,78.811,0,0,1,30.853,29.8a82.6,82.6,0,0,0,10.334,1.011Zm0-17.785a76.332,76.332,0,0,1-8.462-.786C34.9,15.763,37.967,10.971,41.187,8.8ZM48.675,8.8c3.22,2.172,6.29,6.964,8.462,13.741a76.332,76.332,0,0,1-8.462.786Zm0,32.313v-10.3A82.6,82.6,0,0,0,59.009,29.8a78.811,78.811,0,0,1,1.31,11.308ZM60.133,10.746a37.356,37.356,0,0,1,11.42,7.9,45.151,45.151,0,0,1-7,2.359,48.9,48.9,0,0,0-4.418-10.259Zm7.676,30.366a85.155,85.155,0,0,0-1.46-12.843,58.294,58.294,0,0,0,10.035-3.594,37.483,37.483,0,0,1,5.8,16.437Z" fill="#fff"/>
  <path id="Path_131" data-name="Path 131" d="M27.665,54.19H27.6A2.8,2.8,0,0,1,25,52.269L13.145,16.7A2.808,2.808,0,0,1,16.7,13.146L52.269,25a2.806,2.806,0,0,1,.12,5.283L36.427,36.427,30.286,52.389a2.809,2.809,0,0,1-2.621,1.8Z" transform="translate(35.676 35.672)" fill="#fff"/>
</svg>
