<svg xmlns="http://www.w3.org/2000/svg" width="94.863" height="94.84" viewBox="0 0 94.863 94.84">
  <g id="cloud-network" transform="translate(-0.001 -0.48)">
    <path id="Path_40" data-name="Path 40" d="M75.646,25.8a22.4,22.4,0,0,0,.231-3.207,22.135,22.135,0,0,0-42.531-8.574A14.244,14.244,0,0,0,11.8,30.3a18.991,18.991,0,0,0,.264,35.259,1.582,1.582,0,0,0,1.148-2.948,15.826,15.826,0,0,1,1.141-29.871,1.581,1.581,0,0,0,.958-2.2,10.9,10.9,0,0,1-1.1-4.787,11.077,11.077,0,0,1,18.765-7.965,1.581,1.581,0,0,0,2.609-.688A18.973,18.973,0,0,1,72.2,26.985a1.578,1.578,0,0,0,.338,1.394,1.556,1.556,0,0,0,1.328.546c.146-.01.276-.01.425-.01a17.392,17.392,0,0,1,7.2,33.231A1.581,1.581,0,1,0,82.8,65.024,20.554,20.554,0,0,0,75.646,25.8Zm0,0" transform="translate(0 0)" fill="#fff"/>
    <path id="Path_41" data-name="Path 41" d="M146.418,176.355H89.5a1.581,1.581,0,0,0-1.581,1.581v15.811a1.581,1.581,0,0,0,1.581,1.581h56.919A1.581,1.581,0,0,0,148,193.747V177.936A1.581,1.581,0,0,0,146.418,176.355Zm-1.581,15.811H91.08V179.517h53.757Zm0,0" transform="translate(-70.541 -141.116)" fill="#fff"/>
    <path id="Path_42" data-name="Path 42" d="M343.918,200.355h3.162v3.162h-3.162Zm0,0" transform="translate(-275.947 -160.373)" fill="#fff"/>
    <path id="Path_43" data-name="Path 43" d="M311.918,200.355h3.162v3.162h-3.162Zm0,0" transform="translate(-250.271 -160.373)" fill="#fff"/>
    <path id="Path_44" data-name="Path 44" d="M279.918,200.355h3.162v3.162h-3.162Zm0,0" transform="translate(-224.595 -160.373)" fill="#fff"/>
    <path id="Path_45" data-name="Path 45" d="M247.918,200.355h3.162v3.162h-3.162Zm0,0" transform="translate(-198.92 -160.373)" fill="#fff"/>
    <path id="Path_46" data-name="Path 46" d="M215.918,200.355h3.162v3.162h-3.162Zm0,0" transform="translate(-173.244 -160.373)" fill="#fff"/>
    <path id="Path_47" data-name="Path 47" d="M343.918,232.355h3.162v3.162h-3.162Zm0,0" transform="translate(-275.947 -186.048)" fill="#fff"/>
    <path id="Path_48" data-name="Path 48" d="M311.918,232.355h3.162v3.162h-3.162Zm0,0" transform="translate(-250.271 -186.048)" fill="#fff"/>
    <path id="Path_49" data-name="Path 49" d="M279.918,232.355h3.162v3.162h-3.162Zm0,0" transform="translate(-224.595 -186.048)" fill="#fff"/>
    <path id="Path_50" data-name="Path 50" d="M247.918,232.355h3.162v3.162h-3.162Zm0,0" transform="translate(-198.92 -186.048)" fill="#fff"/>
    <path id="Path_51" data-name="Path 51" d="M215.918,232.355h3.162v3.162h-3.162Zm0,0" transform="translate(-173.244 -186.048)" fill="#fff"/>
    <path id="Path_52" data-name="Path 52" d="M183.918,200.355h3.162v3.162h-3.162Zm0,0" transform="translate(-147.568 -160.373)" fill="#fff"/>
    <path id="Path_53" data-name="Path 53" d="M183.918,232.355h3.162v3.162h-3.162Zm0,0" transform="translate(-147.568 -186.048)" fill="#fff"/>
    <path id="Path_54" data-name="Path 54" d="M124.661,209.841a4.743,4.743,0,1,0-4.743-4.743A4.743,4.743,0,0,0,124.661,209.841Zm0-6.324a1.581,1.581,0,1,1-1.581,1.581A1.581,1.581,0,0,1,124.661,203.517Zm0,0" transform="translate(-96.217 -160.373)" fill="#fff"/>
    <path id="Path_55" data-name="Path 55" d="M146.418,280.355H89.5a1.581,1.581,0,0,0-1.581,1.581v15.811a1.581,1.581,0,0,0,1.581,1.581h56.919A1.581,1.581,0,0,0,148,297.747V281.936A1.581,1.581,0,0,0,146.418,280.355Zm-1.581,15.811H91.08V283.517h53.757Zm0,0" transform="translate(-70.541 -224.562)" fill="#fff"/>
    <path id="Path_56" data-name="Path 56" d="M343.918,304.355h3.162v3.162h-3.162Zm0,0" transform="translate(-275.947 -243.819)" fill="#fff"/>
    <path id="Path_57" data-name="Path 57" d="M311.918,304.355h3.162v3.162h-3.162Zm0,0" transform="translate(-250.271 -243.819)" fill="#fff"/>
    <path id="Path_58" data-name="Path 58" d="M279.918,304.355h3.162v3.162h-3.162Zm0,0" transform="translate(-224.595 -243.819)" fill="#fff"/>
    <path id="Path_59" data-name="Path 59" d="M247.918,304.355h3.162v3.162h-3.162Zm0,0" transform="translate(-198.92 -243.819)" fill="#fff"/>
    <path id="Path_60" data-name="Path 60" d="M215.918,304.355h3.162v3.162h-3.162Zm0,0" transform="translate(-173.244 -243.819)" fill="#fff"/>
    <path id="Path_61" data-name="Path 61" d="M343.918,336.355h3.162v3.162h-3.162Zm0,0" transform="translate(-275.947 -269.494)" fill="#fff"/>
    <path id="Path_62" data-name="Path 62" d="M311.918,336.355h3.162v3.162h-3.162Zm0,0" transform="translate(-250.271 -269.494)" fill="#fff"/>
    <path id="Path_63" data-name="Path 63" d="M279.918,336.355h3.162v3.162h-3.162Zm0,0" transform="translate(-224.595 -269.494)" fill="#fff"/>
    <path id="Path_64" data-name="Path 64" d="M247.918,336.355h3.162v3.162h-3.162Zm0,0" transform="translate(-198.92 -269.494)" fill="#fff"/>
    <path id="Path_65" data-name="Path 65" d="M215.918,336.355h3.162v3.162h-3.162Zm0,0" transform="translate(-173.244 -269.494)" fill="#fff"/>
    <path id="Path_66" data-name="Path 66" d="M183.918,304.355h3.162v3.162h-3.162Zm0,0" transform="translate(-147.568 -243.819)" fill="#fff"/>
    <path id="Path_67" data-name="Path 67" d="M183.918,336.355h3.162v3.162h-3.162Zm0,0" transform="translate(-147.568 -269.494)" fill="#fff"/>
    <path id="Path_68" data-name="Path 68" d="M124.661,313.842a4.743,4.743,0,1,0-4.743-4.743A4.743,4.743,0,0,0,124.661,313.842Zm0-6.324a1.581,1.581,0,1,1-1.581,1.581A1.581,1.581,0,0,1,124.661,307.517Zm0,0" transform="translate(-96.217 -243.819)" fill="#fff"/>
    <path id="Path_69" data-name="Path 69" d="M146.418,384.355H89.5a1.581,1.581,0,0,0-1.581,1.581v15.811a1.581,1.581,0,0,0,1.581,1.581h56.919A1.581,1.581,0,0,0,148,401.747V385.936A1.581,1.581,0,0,0,146.418,384.355Zm-1.581,15.811H91.08V387.517h53.757Zm0,0" transform="translate(-70.541 -308.008)" fill="#fff"/>
    <path id="Path_70" data-name="Path 70" d="M343.918,408.355h3.162v3.162h-3.162Zm0,0" transform="translate(-275.947 -327.264)" fill="#fff"/>
    <path id="Path_71" data-name="Path 71" d="M311.918,408.355h3.162v3.162h-3.162Zm0,0" transform="translate(-250.271 -327.264)" fill="#fff"/>
    <path id="Path_72" data-name="Path 72" d="M279.918,408.355h3.162v3.162h-3.162Zm0,0" transform="translate(-224.595 -327.264)" fill="#fff"/>
    <path id="Path_73" data-name="Path 73" d="M247.918,408.355h3.162v3.162h-3.162Zm0,0" transform="translate(-198.92 -327.264)" fill="#fff"/>
    <path id="Path_74" data-name="Path 74" d="M215.918,408.355h3.162v3.162h-3.162Zm0,0" transform="translate(-173.244 -327.264)" fill="#fff"/>
    <path id="Path_75" data-name="Path 75" d="M343.918,440.355h3.162v3.162h-3.162Zm0,0" transform="translate(-275.947 -352.94)" fill="#fff"/>
    <path id="Path_76" data-name="Path 76" d="M311.918,440.355h3.162v3.162h-3.162Zm0,0" transform="translate(-250.271 -352.94)" fill="#fff"/>
    <path id="Path_77" data-name="Path 77" d="M279.918,440.355h3.162v3.162h-3.162Zm0,0" transform="translate(-224.595 -352.94)" fill="#fff"/>
    <path id="Path_78" data-name="Path 78" d="M247.918,440.355h3.162v3.162h-3.162Zm0,0" transform="translate(-198.92 -352.94)" fill="#fff"/>
    <path id="Path_79" data-name="Path 79" d="M215.918,440.355h3.162v3.162h-3.162Zm0,0" transform="translate(-173.244 -352.94)" fill="#fff"/>
    <path id="Path_80" data-name="Path 80" d="M183.918,408.355h3.162v3.162h-3.162Zm0,0" transform="translate(-147.568 -327.264)" fill="#fff"/>
    <path id="Path_81" data-name="Path 81" d="M183.918,440.355h3.162v3.162h-3.162Zm0,0" transform="translate(-147.568 -352.94)" fill="#fff"/>
    <path id="Path_82" data-name="Path 82" d="M124.661,417.842a4.743,4.743,0,1,0-4.743-4.743A4.743,4.743,0,0,0,124.661,417.842Zm0-6.324a1.581,1.581,0,1,1-1.581,1.581A1.581,1.581,0,0,1,124.661,411.517Zm0,0" transform="translate(-96.217 -327.264)" fill="#fff"/>
  </g>
</svg>
