<svg xmlns="http://www.w3.org/2000/svg" width="94.84" height="94.84" viewBox="0 0 94.84 94.84">
  <path id="globe_1_" data-name="globe (1)" d="M80.944,13.9a47.41,47.41,0,1,0,0,67.047A47.384,47.384,0,0,0,80.944,13.9ZM78.962,74.185a47.521,47.521,0,0,0-7.082-5.244,76.675,76.675,0,0,0,2.86-18.5H88.679A40.992,40.992,0,0,1,78.962,74.185ZM6.162,50.441H20.1a76.675,76.675,0,0,0,2.86,18.5,47.522,47.522,0,0,0-7.082,5.244A40.994,40.994,0,0,1,6.162,50.441Zm9.717-29.787A47.522,47.522,0,0,0,22.96,25.9,76.675,76.675,0,0,0,20.1,44.4H6.162A40.993,40.993,0,0,1,15.878,20.654ZM44.4,26.523a41.046,41.046,0,0,1-14.083-3.568C32.878,16.359,37.6,8.447,44.4,6.487Zm0,6.054V44.4H26.145a71.184,71.184,0,0,1,2.291-15.664A47.092,47.092,0,0,0,44.4,32.577Zm0,17.864V62.263a47.092,47.092,0,0,0-15.963,3.842,71.184,71.184,0,0,1-2.291-15.664Zm0,17.876V88.353c-6.8-1.961-11.521-9.871-14.083-16.468A41.046,41.046,0,0,1,44.4,68.317Zm6.042,0a41.046,41.046,0,0,1,14.083,3.568c-2.562,6.6-7.284,14.507-14.083,16.468Zm0-6.054V50.441H68.7A71.184,71.184,0,0,1,66.4,66.105a47.092,47.092,0,0,0-15.963-3.842Zm0-17.864V32.577A47.092,47.092,0,0,0,66.4,28.735,71.184,71.184,0,0,1,68.7,44.4Zm0-17.876V6.487c6.8,1.961,11.521,9.872,14.083,16.468A41.05,41.05,0,0,1,50.441,26.523ZM64.012,9.5a41.186,41.186,0,0,1,10.71,6.839,41.525,41.525,0,0,1-4.86,3.689A45.487,45.487,0,0,0,64.012,9.5ZM24.979,20.031a41.541,41.541,0,0,1-4.86-3.689A41.186,41.186,0,0,1,30.829,9.5a45.5,45.5,0,0,0-5.849,10.528Zm0,54.777a45.49,45.49,0,0,0,5.849,10.528A41.186,41.186,0,0,1,20.119,78.5,41.524,41.524,0,0,1,24.979,74.808Zm44.882,0a41.545,41.545,0,0,1,4.86,3.689,41.185,41.185,0,0,1-10.71,6.839,45.484,45.484,0,0,0,5.849-10.528ZM74.74,44.4a76.674,76.674,0,0,0-2.86-18.5,47.531,47.531,0,0,0,7.082-5.244A40.993,40.993,0,0,1,88.679,44.4Z" transform="translate(0 0)" fill="#fff"/>
</svg>
