<svg id="globe" xmlns="http://www.w3.org/2000/svg" width="20.552" height="20.552" viewBox="0 0 20.552 20.552">
  <g id="Group_5" data-name="Group 5">
    <path id="Path_3" data-name="Path 3" d="M10.276,0A10.227,10.227,0,0,0,0,10.276,10.213,10.213,0,0,0,10.276,20.552c7.836,0,10.276-6.865,10.276-10.276A10.193,10.193,0,0,0,10.276,0ZM7.893.967a9.175,9.175,0,0,0-2.537,4.3A9.547,9.547,0,0,1,3.321,3.649,9.628,9.628,0,0,1,7.893.967ZM2.88,4.143A10.075,10.075,0,0,0,5.174,5.931a17.374,17.374,0,0,0-.526,4.013H.672A9.571,9.571,0,0,1,2.88,4.143Zm0,12.266a9.546,9.546,0,0,1-2.209-5.8H4.648a17.345,17.345,0,0,0,.526,4.013A10.372,10.372,0,0,0,2.88,16.409Zm.441.5a9.547,9.547,0,0,1,2.035-1.622,9.2,9.2,0,0,0,2.537,4.3A9.693,9.693,0,0,1,3.321,16.907Zm6.623,2.957c-1.723-.218-3.208-2.144-4.009-4.9a9.67,9.67,0,0,1,4.009-1.032v5.935Zm0-6.594a10.293,10.293,0,0,0-4.179,1.04,17.354,17.354,0,0,1-.457-3.7H9.944Zm0-3.325H5.308a17.354,17.354,0,0,1,.457-3.7,10.325,10.325,0,0,0,4.179,1.04Zm0-3.321A9.593,9.593,0,0,1,5.935,5.591c.8-2.763,2.286-4.685,4.009-4.9Zm7.727-2.48a9.571,9.571,0,0,1,2.209,5.8H15.907a17.345,17.345,0,0,0-.526-4.013A10.258,10.258,0,0,0,17.671,4.143Zm-.441-.5A9.547,9.547,0,0,1,15.2,5.267a9.217,9.217,0,0,0-2.537-4.3A9.693,9.693,0,0,1,17.23,3.645ZM10.608.688c1.723.218,3.208,2.144,4.009,4.9a9.654,9.654,0,0,1-4.009,1.032Zm0,6.594a10.293,10.293,0,0,0,4.179-1.04,17.354,17.354,0,0,1,.457,3.7H10.608Zm0,3.325h4.636a17.354,17.354,0,0,1-.457,3.7,10.164,10.164,0,0,0-4.179-1.04Zm0,9.256V13.929a9.593,9.593,0,0,1,4.009,1.032C13.816,17.724,12.331,19.645,10.608,19.864Zm2.051-.279a9.175,9.175,0,0,0,2.537-4.3A9.547,9.547,0,0,1,17.23,16.9,9.628,9.628,0,0,1,12.659,19.585Zm5.013-3.176a10.258,10.258,0,0,0-2.29-1.788,17.374,17.374,0,0,0,.526-4.013H19.88A9.571,9.571,0,0,1,17.671,16.409Z" fill="#fff"/>
  </g>
</svg>
