<svg xmlns="http://www.w3.org/2000/svg" width="106.072" height="104.206" viewBox="0 0 106.072 104.206">
  <g id="illustration" transform="translate(0 -4.503)">
    <g id="Group_31" data-name="Group 31" transform="translate(0 4.504)">
      <path id="Path_86" data-name="Path 86" d="M232.054,371.49a1.554,1.554,0,1,0,0,3.108h7.458a1.554,1.554,0,0,0,0-3.108Z" transform="translate(-182.747 -295.461)" fill="#fff"/>
      <path id="Path_87" data-name="Path 87" d="M84.054,232.438H94.325a4.343,4.343,0,0,0,8.117,0h2.053a1.554,1.554,0,1,0,0-3.108h-2.053a4.343,4.343,0,0,0-8.117,0H84.054a1.554,1.554,0,1,0,0,3.108Zm14.329-2.8a1.243,1.243,0,1,1-1.243,1.243A1.244,1.244,0,0,1,98.383,229.642Z" transform="translate(-65.408 -180.535)" fill="#fff"/>
      <path id="Path_88" data-name="Path 88" d="M84.054,189.438h1.984a4.343,4.343,0,0,0,8.117,0h10.34a1.554,1.554,0,1,0,0-3.108H94.155a4.343,4.343,0,0,0-8.117,0H84.054a1.554,1.554,0,1,0,0,3.108Zm6.043-2.8a1.243,1.243,0,1,1-1.243,1.243A1.244,1.244,0,0,1,90.1,186.642Z" transform="translate(-65.408 -146.444)" fill="#fff"/>
      <circle id="Ellipse_7" data-name="Ellipse 7" cx="1.554" cy="1.554" r="1.554" transform="translate(37.844 25.592)" fill="#fff"/>
      <circle id="Ellipse_8" data-name="Ellipse 8" cx="1.554" cy="1.554" r="1.554" transform="translate(33.562 25.592)" fill="#fff"/>
      <circle id="Ellipse_9" data-name="Ellipse 9" cx="1.554" cy="1.554" r="1.554" transform="translate(29.28 25.592)" fill="#fff"/>
      <path id="Path_89" data-name="Path 89" d="M101.411,14.029h-.582l.434-.434a3.338,3.338,0,0,0,0-4.715l-3.4-3.4a3.339,3.339,0,0,0-4.715,0L84.6,14.029H4.661A4.667,4.667,0,0,0,0,18.69V83.217a5.7,5.7,0,0,0,5.7,5.7H42.5V99.906H35.012a3.63,3.63,0,0,0-3.626,3.626v1.553a3.63,3.63,0,0,0,3.626,3.626H71.06a3.63,3.63,0,0,0,3.626-3.626v-1.553a3.63,3.63,0,0,0-3.626-3.626H63.572V88.914h16.6a1.554,1.554,0,0,0,0-3.108H5.7a2.592,2.592,0,0,1-2.59-2.59v-4.6h99.857v4.6a2.592,2.592,0,0,1-2.59,2.59H87.427a1.554,1.554,0,0,0,0,3.108h12.948a5.7,5.7,0,0,0,5.7-5.7V18.691a4.667,4.667,0,0,0-4.661-4.661ZM71.06,103.014a.519.519,0,0,1,.518.518v1.553a.519.519,0,0,1-.518.518H35.012a.519.519,0,0,1-.518-.518v-1.553a.519.519,0,0,1,.518-.518Zm-25.452-14.1H60.464V99.906H45.608ZM95.344,7.676a.227.227,0,0,1,.321,0l3.4,3.4a.227.227,0,0,1,0,.321L95.82,14.643,92.1,10.921ZM89.9,13.119l3.722,3.722-1.084,1.084L88.817,14.2ZM86.62,16.4l3.722,3.722L71.955,38.509l-3.722-3.722Zm-2.3,14.206a3.833,3.833,0,1,1-3.833,3.833c0-.025,0-.048,0-.073l3.756-3.756C84.271,30.609,84.295,30.606,84.319,30.606Zm-15.063,9.6-4.6,1.878,1.878-4.6Zm33.708,35.305H3.108V18.691a1.556,1.556,0,0,1,1.554-1.554H81.488l-2.369,2.369H26.311a1.554,1.554,0,1,0,0,3.108h49.7l-10.96,10.96a3.315,3.315,0,0,0-.719,1.085l-3.471,8.5a2.087,2.087,0,0,0,2.723,2.722l8.5-3.471a3.315,3.315,0,0,0,1.058-.694l4.727-4.726a6.938,6.938,0,1,0,9-9l5.374-5.373h5.244v47.42h-.824l-5.631-9.753a1.554,1.554,0,0,0-2.691,1.554l4.734,8.2H71.371L69.043,66,79.9,47.2l4.821,8.351A1.554,1.554,0,0,0,87.408,54l-5.143-8.909a2.736,2.736,0,0,0-4.738,0l-10.278,17.8L54.061,40.054a2.736,2.736,0,0,0-4.738,0l-3.5,6.068V29.467a3.63,3.63,0,0,0-3.626-3.626H15.538a3.63,3.63,0,0,0-3.626,3.626V63.443a2.592,2.592,0,0,0,2.59,2.59H34.324l-2.31,4H8.585V22.614H19.06a1.554,1.554,0,0,0,0-3.108H8.067a2.592,2.592,0,0,0-2.59,2.59V70.552a2.592,2.592,0,0,0,2.59,2.59H98.006a2.592,2.592,0,0,0,2.59-2.59V22.1a2.592,2.592,0,0,0-2.59-2.59H95.351l2.37-2.369h3.69a1.556,1.556,0,0,1,1.554,1.554ZM42.712,38.072V62.924H15.02V38.072ZM15.02,34.964v-5.5a.519.519,0,0,1,.518-.518H42.194a.519.519,0,0,1,.518.518v5.5ZM37.913,66.032H43.23a2.592,2.592,0,0,0,2.59-2.59V60.151a2.939,2.939,0,0,0,1.275.287,2.9,2.9,0,0,0,2.541-1.467l2.644-4.58a.335.335,0,0,1,.581,0l1.63,2.824a2.934,2.934,0,0,0,5.082,0l.4-.7,7.805,13.519H35.6ZM45.82,54.95V52.337l5.873-10.172,6.49,11.242L57.031,55.4l-1.48-2.563a3.443,3.443,0,0,0-5.963,0l-2.494,4.32Z" transform="translate(0 -4.504)" fill="#fff"/>
    </g>
  </g>
</svg>
