<svg xmlns="http://www.w3.org/2000/svg" width="68.236" height="67.036" viewBox="0 0 68.236 67.036">
  <g id="illustration" transform="translate(0 -4.503)">
    <g id="Group_31" data-name="Group 31" transform="translate(0 4.504)">
      <path id="Path_86" data-name="Path 86" d="M231.5,371.49a1,1,0,1,0,0,2h4.8a1,1,0,0,0,0-2Z" transform="translate(-199.781 -322.581)" fill="#b69149"/>
      <path id="Path_87" data-name="Path 87" d="M83.5,230.332h6.607a2.794,2.794,0,0,0,5.222,0h1.321a1,1,0,1,0,0-2H95.329a2.794,2.794,0,0,0-5.222,0H83.5a1,1,0,1,0,0,2Zm9.218-1.8a.8.8,0,1,1-.8.8A.8.8,0,0,1,92.718,228.533Z" transform="translate(-71.505 -196.943)" fill="#b69149"/>
      <path id="Path_88" data-name="Path 88" d="M83.5,187.332h1.276a2.794,2.794,0,0,0,5.222,0h6.652a1,1,0,1,0,0-2H90a2.794,2.794,0,0,0-5.222,0H83.5a1,1,0,1,0,0,2Zm3.887-1.8a.8.8,0,1,1-.8.8A.8.8,0,0,1,87.387,185.533Z" transform="translate(-71.505 -159.674)" fill="#b69149"/>
      <circle id="Ellipse_7" data-name="Ellipse 7" cx="1" cy="1" r="1" transform="translate(24.345 16.463)" fill="#b69149"/>
      <circle id="Ellipse_8" data-name="Ellipse 8" cx="1" cy="1" r="1" transform="translate(21.59 16.463)" fill="#b69149"/>
      <circle id="Ellipse_9" data-name="Ellipse 9" cx="1" cy="1" r="1" transform="translate(18.836 16.463)" fill="#b69149"/>
      <path id="Path_89" data-name="Path 89" d="M65.237,10.631h-.374l.279-.279a2.147,2.147,0,0,0,0-3.033L62.954,5.131a2.148,2.148,0,0,0-3.033,0l-5.5,5.5H3a3,3,0,0,0-3,3V55.14A3.669,3.669,0,0,0,3.665,58.8H27.34v7.071H22.523a2.335,2.335,0,0,0-2.332,2.332v1a2.335,2.335,0,0,0,2.332,2.332h23.19a2.335,2.335,0,0,0,2.332-2.332v-1a2.335,2.335,0,0,0-2.332-2.332H40.9V58.8H51.577a1,1,0,0,0,0-2H3.665A1.668,1.668,0,0,1,2,55.14V52.181H66.237V55.14a1.668,1.668,0,0,1-1.666,1.666h-8.33a1,1,0,0,0,0,2h8.33a3.669,3.669,0,0,0,3.665-3.665V13.63a3,3,0,0,0-3-3ZM45.713,67.875a.334.334,0,0,1,.333.333v1a.334.334,0,0,1-.333.333H22.523a.334.334,0,0,1-.333-.333v-1a.334.334,0,0,1,.333-.333ZM29.339,58.8H38.9v7.071H29.339ZM61.334,6.544a.146.146,0,0,1,.206,0l2.188,2.188a.146.146,0,0,1,0,.206l-2.088,2.088L59.247,8.632Zm-3.5,3.5,2.394,2.394-.7.7-2.394-2.394Zm-2.111,2.111,2.394,2.394L46.288,26.379l-2.394-2.394Zm-1.48,9.138a2.466,2.466,0,1,1-2.466,2.466c0-.016,0-.031,0-.047L54.2,21.3Zm-9.69,6.175-2.958,1.208L42.8,25.72ZM66.237,50.182H2V13.63a1,1,0,0,1,1-1H52.421L50.9,14.155H16.926a1,1,0,1,0,0,2H48.9L41.848,23.2a2.132,2.132,0,0,0-.462.7l-2.233,5.466A1.343,1.343,0,0,0,40.9,31.12l5.466-2.233a2.132,2.132,0,0,0,.68-.446l3.041-3.04a4.463,4.463,0,1,0,5.791-5.79l3.457-3.457h3.374V46.659h-.53l-3.622-6.274a1,1,0,0,0-1.731,1l3.045,5.275H45.913l-1.5-2.594L51.4,31.973l3.1,5.372a1,1,0,0,0,1.731-1L52.92,30.614a1.76,1.76,0,0,0-3.048,0L43.261,42.066,34.777,27.373a1.76,1.76,0,0,0-3.048,0l-2.254,3.9V20.562a2.335,2.335,0,0,0-2.332-2.332H10a2.335,2.335,0,0,0-2.332,2.332V42.419a1.668,1.668,0,0,0,1.666,1.666H22.081l-1.486,2.574H5.522V16.154h6.739a1,1,0,1,0,0-2H5.189A1.668,1.668,0,0,0,3.523,15.82V46.992a1.668,1.668,0,0,0,1.666,1.666H63.047a1.668,1.668,0,0,0,1.666-1.666V15.82a1.668,1.668,0,0,0-1.666-1.666H61.339l1.524-1.524h2.374a1,1,0,0,1,1,1ZM27.477,26.1V42.086H9.662V26.1Zm-17.814-2V20.562A.334.334,0,0,1,10,20.229H27.143a.334.334,0,0,1,.333.333V24.1ZM24.389,44.085H27.81a1.668,1.668,0,0,0,1.666-1.666V40.3a1.89,1.89,0,0,0,.82.185,1.868,1.868,0,0,0,1.634-.944l1.7-2.946a.216.216,0,0,1,.374,0l1.049,1.816a1.887,1.887,0,0,0,3.269,0l.26-.451,5.021,8.7H22.9Zm5.087-7.129V35.274l3.778-6.543,4.175,7.232-.741,1.283L35.736,35.6a2.215,2.215,0,0,0-3.836,0l-1.6,2.779Z" transform="translate(0 -4.504)" fill="#b69149"/>
    </g>
  </g>
</svg>
