<svg xmlns="http://www.w3.org/2000/svg" width="17.289" height="17.289" viewBox="0 0 17.289 17.289">
  <g id="instagram" transform="translate(0.001 0)">
    <path id="Path_4" data-name="Path 4" d="M12.608,0H4.679A4.685,4.685,0,0,0,0,4.68v7.929a4.685,4.685,0,0,0,4.68,4.68h7.929a4.685,4.685,0,0,0,4.68-4.68V4.68A4.685,4.685,0,0,0,12.608,0Zm3.666,12.609a3.671,3.671,0,0,1-3.666,3.666H4.679a3.671,3.671,0,0,1-3.666-3.666V4.68A3.671,3.671,0,0,1,4.679,1.014h7.929A3.671,3.671,0,0,1,16.275,4.68Zm0,0" fill="#14306f"/>
    <path id="Path_5" data-name="Path 5" d="M120.731,116a4.727,4.727,0,1,0,4.727,4.727A4.733,4.733,0,0,0,120.731,116Zm0,8.441a3.714,3.714,0,1,1,3.714-3.714A3.718,3.718,0,0,1,120.731,124.445Zm0,0" transform="translate(-112.088 -112.087)" fill="#14306f"/>
    <path id="Path_6" data-name="Path 6" d="M359.374,66.285a1.4,1.4,0,1,0,1.4,1.4A1.4,1.4,0,0,0,359.374,66.285Zm0,1.78a.383.383,0,1,1,.383-.383A.384.384,0,0,1,359.374,68.065Zm0,0" transform="translate(-345.89 -64.047)" fill="#14306f"/>
  </g>
</svg>
