<svg id="maximize" xmlns="http://www.w3.org/2000/svg" width="89.862" height="89.861" viewBox="0 0 89.862 89.861">
  <path id="Path_125" data-name="Path 125" d="M73.688,336.156H67.245l14.864-14.809-3.716-3.73L63.566,332.389v-6.354H58.3v15.387H73.688Zm0,0" transform="translate(-48.069 -261.872)" fill="#fff"/>
  <path id="Path_126" data-name="Path 126" d="M326.472,336.156v5.265h15.387V326.035h-5.265v6.354l-14.827-14.772-3.716,3.73,14.864,14.809Zm0,0" transform="translate(-262.229 -261.872)" fill="#fff"/>
  <path id="Path_127" data-name="Path 127" d="M63.566,67.787,78.393,82.559l3.716-3.73L67.245,64.02h6.442V58.754H58.3V74.141h5.265Zm0,0" transform="translate(-48.068 -48.442)" fill="#fff"/>
  <path id="Path_128" data-name="Path 128" d="M321.767,82.558l14.827-14.772v6.354h5.265V58.754H326.472v5.265h6.443L318.051,78.828Zm0,0" transform="translate(-262.23 -48.442)" fill="#fff"/>
  <path id="Path_129" data-name="Path 129" d="M0,0V89.861H89.862V0ZM84.6,84.6H5.265V5.265H84.6Zm0,0" fill="#fff"/>
</svg>
