<svg xmlns="http://www.w3.org/2000/svg" width="103.826" height="94.84" viewBox="0 0 103.826 94.84">
  <g id="mobile-app" transform="translate(-1 -1)">
    <path id="Path_26" data-name="Path 26" d="M104.826,49.95c0-10.232-7.9-18.8-18.421-20.908V8.648C86.4,4.431,82.649,1,78.032,1H34.492c-4.617,0-8.373,3.431-8.373,7.648V25.475H16.438l-1.01,3.7-3.574-1.96L2.9,35.387l2.145,3.267L1,39.577V51.145l4.046.922L2.9,55.334l8.954,8.178,3.574-1.96,1.011,3.694h9.681V88.192c0,4.217,3.756,7.648,8.373,7.648h43.54c4.617,0,8.373-3.431,8.373-7.648V70.858c10.52-2.108,18.421-10.676,18.421-20.908Zm-3.349,0a16.959,16.959,0,0,1-2.185,8.282,8.127,8.127,0,0,0-5.831-4.8L86.4,51.815v-.366a7.458,7.458,0,0,0,3.349-6.087V42.3a7.388,7.388,0,0,0-2.716-5.64,8.928,8.928,0,0,0-6.4-1.979,8.155,8.155,0,0,0-7.63,7.934v2.743a7.458,7.458,0,0,0,3.349,6.087v.366L69.3,53.425a8.127,8.127,0,0,0-5.831,4.8,16.948,16.948,0,0,1-2.185-8.28c0-10.122,9.014-18.356,20.1-18.356S101.476,39.828,101.476,49.95ZM76.357,29.042a24.918,24.918,0,0,0-3.349.929v-4.5H39.516V46.891H58.2a19.442,19.442,0,0,0-.268,3.059c0,10.232,7.9,18.8,18.421,20.908v3.567H36.167V22.416H76.357ZM58.925,43.831H42.865v-15.3H69.659v2.9A21.944,21.944,0,0,0,58.925,43.831ZM34.492,4.059h43.54a4.827,4.827,0,0,1,5.024,4.589v4.589H29.468V8.648A4.827,4.827,0,0,1,34.492,4.059Zm-8.373,48.3a8.992,8.992,0,0,1-3.349.655c-4.617,0-8.373-3.431-8.373-7.648s3.756-7.648,8.373-7.648a8.992,8.992,0,0,1,3.349.655Zm-7.065,9.833-.816-2.981-.34-.818-1.912-.71L12.372,59.66l-5.255-4.8,2.17-3.3L8.45,49.69l-4.1-.935V41.966l4.1-.935.842-1.866-2.17-3.3,5.255-4.8,3.614,1.982,2.043-.759,1.025-3.751h7.065V35.12a12.663,12.663,0,0,0-3.349-.467c-6.464,0-11.722,4.8-11.722,10.708S16.306,56.069,22.77,56.069a12.663,12.663,0,0,0,3.349-.467v6.585ZM78.032,92.781H34.492a4.827,4.827,0,0,1-5.024-4.589V83.6H83.056v4.589A4.827,4.827,0,0,1,78.032,92.781Zm5.024-12.237H29.468V16.3H83.056V28.612c-.556-.037-1.109-.078-1.675-.078s-1.119.041-1.675.078V19.356H32.818V77.484H79.707v-6.2c.556.037,1.109.078,1.675.078s1.119-.041,1.675-.078ZM81.381,68.306A20.89,20.89,0,0,1,66.31,62.051V60.846a4.684,4.684,0,0,1,3.8-4.453L79.707,54.2V49.751l-.832-.442a4.487,4.487,0,0,1-2.517-3.948V42.618a4.956,4.956,0,0,1,4.57-4.887,5.319,5.319,0,0,1,3.848,1.187A4.432,4.432,0,0,1,86.4,42.3v3.059a4.487,4.487,0,0,1-2.517,3.948l-.832.442V54.2l9.592,2.189a4.684,4.684,0,0,1,3.8,4.453v1.205A20.89,20.89,0,0,1,81.381,68.306Z" transform="translate(0 0)" fill="#fff"/>
    <path id="Path_27" data-name="Path 27" d="M38,5h2.421V7.421H38Z" transform="translate(25.533 0.842)" fill="#fff"/>
    <path id="Path_28" data-name="Path 28" d="M28,5h9.685V7.421H28Z" transform="translate(20.07 0.842)" fill="#fff"/>
    <path id="Path_29" data-name="Path 29" d="M30,57h9.685v2.421H30Z" transform="translate(21.557 31.577)" fill="#fff"/>
    <path id="Path_30" data-name="Path 30" d="M44,57h2.421v2.421H44Z" transform="translate(29.673 31.577)" fill="#fff"/>
    <path id="Path_31" data-name="Path 31" d="M22,57h2.421v2.421H22Z" transform="translate(14.492 31.577)" fill="#fff"/>
    <path id="Path_32" data-name="Path 32" d="M24,33H34.9v2.421H24Z" transform="translate(17.328 17.29)" fill="#fff"/>
    <path id="Path_33" data-name="Path 33" d="M24,37H34.9v2.421H24Z" transform="translate(17.328 19.452)" fill="#fff"/>
    <path id="Path_34" data-name="Path 34" d="M24,41H34.9v2.421H24Z" transform="translate(17.328 21.613)" fill="#fff"/>
    <path id="Path_35" data-name="Path 35" d="M24,45H34.9v2.421H24Z" transform="translate(17.328 23.774)" fill="#fff"/>
    <path id="Path_36" data-name="Path 36" d="M57.632,21.949a3.623,3.623,0,0,0,1.211-7.041V5H56.421v9.908a3.623,3.623,0,0,0,1.211,7.041Zm0-4.842a1.211,1.211,0,1,1-1.211,1.211A1.212,1.212,0,0,1,57.632,17.106Z" transform="translate(39.93 0.842)" fill="#fff"/>
    <path id="Path_37" data-name="Path 37" d="M56,1h2.421V3.421H56Z" transform="translate(40.351)" fill="#fff"/>
    <path id="Path_38" data-name="Path 38" d="M11.632,45a3.623,3.623,0,0,0-1.211,7.041v9.908h2.421V52.041A3.623,3.623,0,0,0,11.632,45Zm0,4.842a1.211,1.211,0,1,1,1.211-1.211A1.212,1.212,0,0,1,11.632,49.842Z" transform="translate(1.474 29.049)" fill="#fff"/>
    <path id="Path_39" data-name="Path 39" d="M10,61h2.421v2.421H10Z" transform="translate(1.896 32.419)" fill="#fff"/>
  </g>
</svg>
