<svg xmlns="http://www.w3.org/2000/svg" width="64.671" height="59.075" viewBox="0 0 64.671 59.075">
  <g id="mobile-app" transform="translate(-1 -1)">
    <path id="Path_26" data-name="Path 26" d="M65.671,31.49c0-6.373-4.921-11.71-11.474-13.023V5.764A5.011,5.011,0,0,0,48.982,1H21.862a5.011,5.011,0,0,0-5.215,4.764V16.245h-6.03l-.629,2.3L7.761,17.326,2.183,22.419l1.336,2.035L1,25.029v7.205l2.52.575L2.183,34.844,7.76,39.938l2.226-1.221.63,2.3h6.03V55.31a5.011,5.011,0,0,0,5.215,4.764h27.12A5.011,5.011,0,0,0,54.2,55.31v-10.8C60.75,43.2,65.671,37.863,65.671,31.49Zm-2.086,0a10.563,10.563,0,0,1-1.361,5.159,5.062,5.062,0,0,0-3.632-2.993l-4.395-1v-.228a4.645,4.645,0,0,0,2.086-3.791V26.727a4.6,4.6,0,0,0-1.692-3.513A5.561,5.561,0,0,0,50.6,21.981a5.08,5.08,0,0,0-4.752,4.942v1.708a4.645,4.645,0,0,0,2.086,3.791v.228l-4.395,1a5.062,5.062,0,0,0-3.632,2.993,10.557,10.557,0,0,1-1.361-5.158c0-6.3,5.615-11.434,12.517-11.434S63.585,25.185,63.585,31.49ZM47.939,18.467a15.521,15.521,0,0,0-2.086.578v-2.8H24.991V29.584H36.632a12.11,12.11,0,0,0-.167,1.906c0,6.373,4.921,11.71,11.474,13.023v2.222H22.9v-32.4H47.939ZM37.08,27.679h-10V18.151H43.766v1.8A13.669,13.669,0,0,0,37.08,27.679ZM21.862,2.906h27.12a3.007,3.007,0,0,1,3.129,2.858V8.622H18.732V5.764A3.007,3.007,0,0,1,21.862,2.906ZM16.646,32.988a5.6,5.6,0,0,1-2.086.408,5.011,5.011,0,0,1-5.215-4.764,5.011,5.011,0,0,1,5.215-4.764,5.6,5.6,0,0,1,2.086.408Zm-4.4,6.125-.508-1.857-.212-.51L10.335,36.3,8.084,37.538,4.81,34.548,6.162,32.49l-.522-1.162-2.555-.582V26.517l2.551-.582.525-1.162L4.81,22.716l3.273-2.991,2.251,1.235,1.273-.473.638-2.336h4.4v4.1a7.887,7.887,0,0,0-2.086-.291c-4.026,0-7.3,2.993-7.3,6.67s3.275,6.67,7.3,6.67a7.887,7.887,0,0,0,2.086-.291v4.1ZM48.982,58.169H21.862a3.007,3.007,0,0,1-3.129-2.858V52.452H52.111V55.31A3.007,3.007,0,0,1,48.982,58.169Zm3.129-7.623H18.732V10.528H52.111V18.2c-.346-.023-.691-.049-1.043-.049s-.7.026-1.043.049V12.434H20.819V48.641H50.025v-3.86c.346.023.691.049,1.043.049s.7-.026,1.043-.049Zm-1.043-7.622a13.012,13.012,0,0,1-9.388-3.9v-.751A2.918,2.918,0,0,1,44.05,35.5l5.975-1.363V31.366l-.518-.275a2.8,2.8,0,0,1-1.568-2.459V26.923a3.087,3.087,0,0,1,2.847-3.044,3.313,3.313,0,0,1,2.4.739A2.761,2.761,0,0,1,54.2,26.726v1.906a2.8,2.8,0,0,1-1.568,2.459l-.518.275V34.14L58.086,35.5a2.918,2.918,0,0,1,2.37,2.774v.751A13.012,13.012,0,0,1,51.068,42.924Z" transform="translate(0 0)" fill="#b69149"/>
    <path id="Path_27" data-name="Path 27" d="M38,5h1.508V6.508H38Z" transform="translate(1.95 -0.984)" fill="#b69149"/>
    <path id="Path_28" data-name="Path 28" d="M28,5h6.033V6.508H28Z" transform="translate(2.319 -0.984)" fill="#b69149"/>
    <path id="Path_29" data-name="Path 29" d="M30,57h6.033v1.508H30Z" transform="translate(2.491 -1.45)" fill="#b69149"/>
    <path id="Path_30" data-name="Path 30" d="M44,57h1.508v1.508H44Z" transform="translate(2.267 -1.45)" fill="#b69149"/>
    <path id="Path_31" data-name="Path 31" d="M22,57h1.508v1.508H22Z" transform="translate(1.107 -1.45)" fill="#b69149"/>
    <path id="Path_32" data-name="Path 32" d="M24,33h6.787v1.508H24Z" transform="translate(2.12 -1.298)" fill="#b69149"/>
    <path id="Path_33" data-name="Path 33" d="M24,37h6.787v1.508H24Z" transform="translate(2.12 -1.46)" fill="#b69149"/>
    <path id="Path_34" data-name="Path 34" d="M24,41h6.787v1.508H24Z" transform="translate(2.12 -1.623)" fill="#b69149"/>
    <path id="Path_35" data-name="Path 35" d="M24,45h6.787v1.508H24Z" transform="translate(2.12 -1.785)" fill="#b69149"/>
    <path id="Path_36" data-name="Path 36" d="M56.262,15.557a2.257,2.257,0,0,0,.754-4.386V5H55.508v6.171a2.257,2.257,0,0,0,.754,4.386Zm0-3.016a.754.754,0,1,1-.754.754A.755.755,0,0,1,56.262,12.541Z" transform="translate(4.884 -0.984)" fill="#b69149"/>
    <path id="Path_37" data-name="Path 37" d="M56,1h1.508V2.508H56Z" transform="translate(4.393)" fill="#b69149"/>
    <path id="Path_38" data-name="Path 38" d="M10.262,45a2.257,2.257,0,0,0-.754,4.386v6.171h1.508V49.386A2.257,2.257,0,0,0,10.262,45Zm0,3.016a.754.754,0,1,1,.754-.754A.755.755,0,0,1,10.262,48.016Z" transform="translate(-1.721 1.501)" fill="#b69149"/>
    <path id="Path_39" data-name="Path 39" d="M10,61h1.508v1.508H10Z" transform="translate(-2.213 -2.434)" fill="#b69149"/>
  </g>
</svg>
