<svg xmlns="http://www.w3.org/2000/svg" width="16.604" height="23.615" viewBox="0 0 16.604 23.615">
  <g id="placeholder_1_" data-name="placeholder (1)" transform="translate(-76)">
    <g id="Group_2" data-name="Group 2" transform="translate(76)">
      <g id="Group_1" data-name="Group 1" transform="translate(0)">
        <path id="Path_1" data-name="Path 1" d="M84.3,0a8.3,8.3,0,0,0-7.063,12.668l6.59,10.62a.692.692,0,0,0,.588.327h.005a.692.692,0,0,0,.588-.336l6.422-10.723A8.3,8.3,0,0,0,84.3,0Zm5.944,11.845-5.839,9.749-5.992-9.655a6.923,6.923,0,1,1,11.83-.094Z" transform="translate(-76)" fill="#fff"/>
      </g>
    </g>
    <g id="Group_4" data-name="Group 4" transform="translate(80.151 4.151)">
      <g id="Group_3" data-name="Group 3" transform="translate(0)">
        <path id="Path_2" data-name="Path 2" d="M170.151,90a4.151,4.151,0,1,0,4.151,4.151A4.156,4.156,0,0,0,170.151,90Zm0,6.928a2.777,2.777,0,1,1,2.772-2.777A2.779,2.779,0,0,1,170.151,96.928Z" transform="translate(-166 -90)" fill="#fff"/>
      </g>
    </g>
  </g>
</svg>
