<svg xmlns="http://www.w3.org/2000/svg" width="115.919" height="88.187" viewBox="0 0 115.919 88.187">
  <g id="programming-code-signs" transform="translate(0.001 -11.304)">
    <g id="Group_33" data-name="Group 33" transform="translate(-0.001 11.304)">
      <path id="Path_91" data-name="Path 91" d="M101.341,51.426,71.757,21.841a2.523,2.523,0,0,0-3.468,0l-6.414,6.414a2.453,2.453,0,0,0,0,3.469L83.313,53.159,61.877,74.6a2.453,2.453,0,0,0,0,3.469l6.414,6.414a2.449,2.449,0,0,0,3.469,0L101.341,54.9A2.456,2.456,0,0,0,101.341,51.426Z" transform="translate(13.859 -9.073)" fill="#fff"/>
      <path id="Path_92" data-name="Path 92" d="M40.182,74.6,18.749,53.166,40.186,31.731a2.452,2.452,0,0,0,0-3.469l-6.414-6.414a2.452,2.452,0,0,0-3.469,0L.718,51.431a2.454,2.454,0,0,0,0,3.47L30.3,84.484a2.449,2.449,0,0,0,3.469,0l6.414-6.414A2.449,2.449,0,0,0,40.182,74.6Z" transform="translate(0.001 -9.078)" fill="#fff"/>
      <path id="Path_93" data-name="Path 93" d="M67.238,14.12a2.455,2.455,0,0,0-1.46-1.18l-5.2-1.534a2.452,2.452,0,0,0-3.047,1.658L33.394,94.808a2.454,2.454,0,0,0,1.657,3.047l5.2,1.534A2.447,2.447,0,0,0,43.3,97.731L67.435,15.986A2.447,2.447,0,0,0,67.238,14.12Z" transform="translate(7.545 -11.304)" fill="#fff"/>
    </g>
  </g>
</svg>
