<svg xmlns="http://www.w3.org/2000/svg" width="82.234" height="62.561" viewBox="0 0 82.234 62.561">
  <g id="programming-code-signs" transform="translate(0.001 -11.304)">
    <g id="Group_33" data-name="Group 33" transform="translate(-0.001 11.304)">
      <path id="Path_91" data-name="Path 91" d="M89.664,42.628,68.677,21.641a1.79,1.79,0,0,0-2.46,0l-4.55,4.55a1.74,1.74,0,0,0,0,2.461L76.875,43.858,61.668,59.066a1.74,1.74,0,0,0,0,2.461l4.55,4.55a1.737,1.737,0,0,0,2.461,0L89.664,45.091A1.742,1.742,0,0,0,89.664,42.628Z" transform="translate(-7.94 -12.583)" fill="#b69149"/>
      <path id="Path_92" data-name="Path 92" d="M28.505,59.064,13.3,43.857,28.508,28.651a1.739,1.739,0,0,0,0-2.461l-4.55-4.55a1.739,1.739,0,0,0-2.461,0L.509,42.625a1.741,1.741,0,0,0,0,2.462L21.5,66.074a1.737,1.737,0,0,0,2.461,0l4.55-4.55A1.737,1.737,0,0,0,28.505,59.064Z" transform="translate(0.001 -12.58)" fill="#b69149"/>
      <path id="Path_93" data-name="Path 93" d="M57.374,13.3a1.741,1.741,0,0,0-1.035-.837L52.65,11.376a1.74,1.74,0,0,0-2.161,1.176L33.364,70.542A1.741,1.741,0,0,0,34.54,72.7l3.689,1.089a1.736,1.736,0,0,0,2.161-1.176L57.514,14.625A1.736,1.736,0,0,0,57.374,13.3Z" transform="translate(-4.322 -11.304)" fill="#b69149"/>
    </g>
  </g>
</svg>
