<svg id="research" xmlns="http://www.w3.org/2000/svg" width="67.048" height="67.035" viewBox="0 0 67.048 67.035">
  <path id="Path_112" data-name="Path 112" d="M120,264h3.348v2.232H120Z" transform="translate(-105.49 -229.332)" fill="#b69149"/>
  <path id="Path_113" data-name="Path 113" d="M176,304h3.348v2.232H176Z" transform="translate(-153.678 -263.751)" fill="#b69149"/>
  <path id="Path_114" data-name="Path 114" d="M120,304h5.581v2.232H120Z" transform="translate(-105.49 -263.751)" fill="#b69149"/>
  <path id="Path_115" data-name="Path 115" d="M56,304h6.7v2.232H56Z" transform="translate(-50.419 -263.751)" fill="#b69149"/>
  <path id="Path_116" data-name="Path 116" d="M104,344h13.393v2.232H104Z" transform="translate(-91.723 -298.171)" fill="#b69149"/>
  <path id="Path_117" data-name="Path 117" d="M56,344h4.464v2.232H56Z" transform="translate(-50.419 -298.171)" fill="#b69149"/>
  <path id="Path_118" data-name="Path 118" d="M152,384h6.7v2.232H152Z" transform="translate(-133.026 -332.59)" fill="#b69149"/>
  <path id="Path_119" data-name="Path 119" d="M56,384H67.161v2.232H56Z" transform="translate(-50.419 -332.59)" fill="#b69149"/>
  <path id="Path_120" data-name="Path 120" d="M104,424h6.7v2.232H104Z" transform="translate(-91.723 -367.01)" fill="#b69149"/>
  <path id="Path_121" data-name="Path 121" d="M56,424h4.464v2.232H56Z" transform="translate(-50.419 -367.01)" fill="#b69149"/>
  <path id="Path_122" data-name="Path 122" d="M80.735,212.464a1.116,1.116,0,0,0-1.116-1.116h-6.7a1.116,1.116,0,0,0-1.116,1.116v5.581H66.225a1.116,1.116,0,0,0-1.116,1.116v5.581H59.529a1.116,1.116,0,0,0-1.116,1.116v5.581H52.832a1.116,1.116,0,0,0-1.116,1.116v6.7h-8a3.348,3.348,0,1,0,0,2.232h1.308v3.348a1.117,1.117,0,0,1-1.116,1.116H19.348a1.117,1.117,0,0,1-1.116-1.116V219.161h5.581a3.352,3.352,0,0,0,3.348-3.348v-5.581H43.9a1.117,1.117,0,0,1,1.116,1.116v1.116h2.232v-1.116A3.352,3.352,0,0,0,43.9,208H26.97a3.326,3.326,0,0,0-2.368.981L16.981,216.6A3.326,3.326,0,0,0,16,218.97v25.862a3.352,3.352,0,0,0,3.348,3.348H43.9a3.352,3.352,0,0,0,3.348-3.348v-3.348H82.967v-2.232H80.735Zm-55.806-.654v4a1.117,1.117,0,0,1-1.116,1.116h-4Zm15.626,29.673a1.116,1.116,0,1,1,1.116-1.116A1.116,1.116,0,0,1,40.555,241.483Zm13.393-7.813h4.464v5.581H53.948Zm6.7-6.7h4.464v12.277H60.645Zm6.7-6.7h4.464v18.974H67.341Zm6.7,18.974V213.581H78.5v25.671Z" transform="translate(-16 -181.145)" fill="#b69149"/>
  <path id="Path_123" data-name="Path 123" d="M19.348,78.313a3.348,3.348,0,0,0,3.021-4.791l3.349-3.349a3.347,3.347,0,0,0,4.6-1.905h4.848a3.348,3.348,0,0,0,6.458-.563l6.3-5.4a3.348,3.348,0,1,0-1.518-1.639l-5.34,4.577a3.346,3.346,0,0,0-5.9.8H30.317a3.348,3.348,0,1,0-6.178,2.559l-3.349,3.349a3.348,3.348,0,1,0-1.443,6.37Zm30.135-20.09a1.116,1.116,0,1,1-1.116,1.116,1.116,1.116,0,0,1,1.116-1.116ZM38.322,66.035a1.116,1.116,0,1,1-1.116,1.116,1.116,1.116,0,0,1,1.116-1.116Zm-11.161,0a1.116,1.116,0,1,1-1.116,1.116A1.116,1.116,0,0,1,27.161,66.035Zm-7.813,7.813a1.116,1.116,0,1,1-1.116,1.116A1.116,1.116,0,0,1,19.348,73.848Z" transform="translate(-15.999 -50.341)" fill="#b69149"/>
  <path id="Path_124" data-name="Path 124" d="M183.653,41.685l-7.377,7.377H166.5a3.348,3.348,0,1,0,0,2.232h2.424v20.09h2.232V51.3h5.581a1.116,1.116,0,0,0,.789-.327l8.055-8.055a14.549,14.549,0,1,0-1.929-1.227ZM163.345,51.3a1.116,1.116,0,1,1,1.116-1.116A1.116,1.116,0,0,1,163.345,51.3Zm37.972-12.814L194.849,31.2h9.741A12.236,12.236,0,0,1,201.317,38.481Zm3.273-9.508H193.48V17.863A12.3,12.3,0,0,1,204.59,28.973Zm-13.342-11.11V30.089a1.11,1.11,0,0,0,.283.741h0l8.119,9.134a12.275,12.275,0,1,1-8.4-22.1Z" transform="translate(-139.906 -15.511)" fill="#b69149"/>
</svg>
