<svg xmlns="http://www.w3.org/2000/svg" width="113.258" height="104.206" viewBox="0 0 113.258 104.206">
  <g id="shopping-cart" transform="translate(0 -20.46)">
    <g id="Group_32" data-name="Group 32" transform="translate(0 20.46)">
      <path id="Path_90" data-name="Path 90" d="M89,100.226H44.027L41.415,89.78h58.971l12.872-51.486H28.544L24.085,20.46H0v7.388H18.317L36.5,100.587a12.224,12.224,0,1,0,14.164,7.028H77.781A12.218,12.218,0,1,0,89,100.226ZM63.493,82.392h-8.2l-1.832-14.66H63.493v14.66ZM91.117,45.683h12.677l-3.665,14.66H89.285ZM88.361,67.732h9.921l-3.665,14.66H86.529ZM70.881,45.683H83.672l-1.832,14.66H70.881V45.683Zm0,22.049H80.916l-1.832,14.66h-8.2V67.732ZM63.493,45.683v14.66H52.534L50.7,45.683H63.493Zm-33.1,0H43.256l1.832,14.66H34.056ZM35.9,67.732H46.012l1.832,14.66H39.568Zm3.541,49.546a4.831,4.831,0,1,1,4.831-4.832A4.837,4.837,0,0,1,39.444,117.278Zm49.558,0a4.831,4.831,0,1,1,4.831-4.832A4.837,4.837,0,0,1,89,117.278Z" transform="translate(0 -20.46)" fill="#fff"/>
    </g>
  </g>
</svg>
