<svg id="social-media" xmlns="http://www.w3.org/2000/svg" width="171.969" height="83.118" viewBox="0 0 171.969 83.118">
  <g id="Group_35" data-name="Group 35" transform="translate(57.358 13.952)">
    <g id="Group_34" data-name="Group 34" transform="translate(0 0)">
      <rect id="Rectangle_35" data-name="Rectangle 35" width="57.358" height="6.201" fill="#fff"/>
    </g>
  </g>
  <g id="Group_39" data-name="Group 39" transform="translate(11.465 25.795)">
    <g id="Group_38" data-name="Group 38">
      <path id="Path_98" data-name="Path 98" d="M63.519,82.686a2.864,2.864,0,0,0-1.125-2.08L59.41,78.345a7.822,7.822,0,0,0-15.5,1.432,16.636,16.636,0,0,1-6.438-2.6l-1-.675A2.866,2.866,0,0,0,32,78.878V81.23a16.554,16.554,0,0,0,2.973,9.515l-2.144,2.169A2.866,2.866,0,0,0,34.866,97.8H48.755a10.851,10.851,0,0,0,10.734-9.641l3.21-3.248A2.869,2.869,0,0,0,63.519,82.686Zm-8.865,2.2a2.862,2.862,0,0,0-.829,2.015,5.122,5.122,0,0,1-5.072,5.158H41.463a2.87,2.87,0,0,0-.59-3.161A10.961,10.961,0,0,1,38.093,84a22.292,22.292,0,0,0,8.68,1.752,2.865,2.865,0,0,0,2.866-2.866V79.882a2.094,2.094,0,1,1,4.187,0,2.868,2.868,0,0,0,1.134,2.284L56.326,83.2Z" transform="translate(-32 -72)" fill="#fff"/>
    </g>
  </g>
  <g id="Group_41" data-name="Group 41" transform="translate(77.386 42.992)">
    <g id="Group_40" data-name="Group 40">
      <path id="Path_99" data-name="Path 99" d="M233.2,125.732V120h-8.6a2.865,2.865,0,0,0-2.866,2.866v8.6H216V137.2h5.732v11.465h5.732V137.2H233.2v-5.732h-5.732v-5.732Z" transform="translate(-216 -120)" fill="#fff"/>
    </g>
  </g>
  <g id="Group_43" data-name="Group 43" transform="translate(60.189 31.528)">
    <g id="Group_42" data-name="Group 42">
      <path id="Path_100" data-name="Path 100" d="M210.992,88H176.6a8.608,8.608,0,0,0-8.6,8.6v34.394a8.608,8.608,0,0,0,8.6,8.6h34.394a8.608,8.608,0,0,0,8.6-8.6V96.6A8.608,8.608,0,0,0,210.992,88Zm2.866,42.992a2.869,2.869,0,0,1-2.866,2.866H176.6a2.869,2.869,0,0,1-2.866-2.866V96.6a2.869,2.869,0,0,1,2.866-2.866h34.394a2.869,2.869,0,0,1,2.866,2.866Z" transform="translate(-168 -88)" fill="#fff"/>
    </g>
  </g>
  <g id="Group_45" data-name="Group 45" transform="translate(0 14.331)">
    <g id="Group_44" data-name="Group 44">
      <path id="Path_101" data-name="Path 101" d="M42.992,40H8.6A8.608,8.608,0,0,0,0,48.6V82.992a8.608,8.608,0,0,0,8.6,8.6H42.992a8.608,8.608,0,0,0,8.6-8.6V48.6A8.608,8.608,0,0,0,42.992,40Zm2.866,42.992a2.869,2.869,0,0,1-2.866,2.866H8.6a2.869,2.869,0,0,1-2.866-2.866V48.6A2.869,2.869,0,0,1,8.6,45.732H42.992A2.869,2.869,0,0,1,45.858,48.6Z" transform="translate(0 -40)" fill="#fff"/>
    </g>
  </g>
  <g id="Group_47" data-name="Group 47" transform="translate(120.378)">
    <g id="Group_46" data-name="Group 46">
      <path id="Path_102" data-name="Path 102" d="M378.992,0H344.6A8.608,8.608,0,0,0,336,8.6V42.992a8.608,8.608,0,0,0,8.6,8.6h34.394a8.608,8.608,0,0,0,8.6-8.6V8.6A8.608,8.608,0,0,0,378.992,0Zm2.866,42.992a2.869,2.869,0,0,1-2.866,2.866H344.6a2.869,2.869,0,0,1-2.866-2.866V28.661h6.022a14.33,14.33,0,0,0,28.082,0h6.022ZM353.2,25.8a8.6,8.6,0,1,1,8.6,8.6A8.608,8.608,0,0,1,353.2,25.8Zm28.661-2.866h-6.022a14.33,14.33,0,0,0-28.082,0h-6.022V8.6A2.869,2.869,0,0,1,344.6,5.732h34.394A2.869,2.869,0,0,1,381.858,8.6Z" transform="translate(-336)" fill="#fff"/>
    </g>
  </g>
</svg>
