<svg xmlns="http://www.w3.org/2000/svg" width="19.278" height="15.707" viewBox="0 0 19.278 15.707">
  <g id="twitter" transform="translate(-0.001 -47.348)">
    <g id="Group_6" data-name="Group 6" transform="translate(0.001 47.348)">
      <path id="Path_8" data-name="Path 8" d="M19.168,49.116a.43.43,0,0,0-.393-.1l-.654.229a4.484,4.484,0,0,0,.818-1.407.338.338,0,0,0-.065-.393.348.348,0,0,0-.393-.065,23.966,23.966,0,0,1-2.356.916c0,.033-.033,0-.065,0a6.813,6.813,0,0,0-2.716-.949,4.325,4.325,0,0,0-4.188,4.385v.131a11.926,11.926,0,0,1-7.3-3.763l-.327-.327-.2.393a4.427,4.427,0,0,0,.949,5.366,2.672,2.672,0,0,1-1.342-.589.392.392,0,0,0-.458-.033.4.4,0,0,0-.164.425,6.421,6.421,0,0,0,2.847,3.534A2.624,2.624,0,0,1,1.6,56.478a.461.461,0,0,0-.458.033.358.358,0,0,0-.131.425,3.944,3.944,0,0,0,3.567,2.781A8.029,8.029,0,0,1,.452,60.764a.466.466,0,0,0-.425.294.455.455,0,0,0,.131.491c1.178.949,3.8,1.505,7.035,1.505,5.759,0,10.471-5.137,10.471-11.452v-.1a3.241,3.241,0,0,0,1.6-2A.43.43,0,0,0,19.168,49.116Zm-1.963,1.865-.2.065V51.6c0,5.955-4.417,10.8-9.816,10.8a14.58,14.58,0,0,1-6.053-1.014A7.875,7.875,0,0,0,5.72,59.717l.818-.589H5.556c-1.865,0-3.01-.524-3.665-1.767a5.151,5.151,0,0,0,1.9.164,6.3,6.3,0,0,1,.785-.033l.1-.654A5.911,5.911,0,0,1,1.237,53.86a4.933,4.933,0,0,0,2.029.36H4.28l-.818-.589c-.687-.491-2.716-2.225-1.734-4.712,2.094,2.061,4.09,3.01,7.689,3.665l.393.065v-.916A3.67,3.67,0,0,1,13.344,48a6.016,6.016,0,0,1,2.356.851.75.75,0,0,0,.589.065c.491-.164,1.08-.393,1.734-.654a5.23,5.23,0,0,1-1.211,1.374.394.394,0,0,0-.1.458.325.325,0,0,0,.425.164l1.276-.425A2.312,2.312,0,0,1,17.205,50.981Z" transform="translate(-0.001 -47.348)" fill="#14306f"/>
    </g>
  </g>
</svg>
