<svg xmlns="http://www.w3.org/2000/svg" width="112.899" height="85.998" viewBox="0 0 112.899 85.998">
  <g id="youtube_2_" data-name="youtube (2)" transform="translate(0 -61)">
    <path id="Path_110" data-name="Path 110" d="M227.521,183.041,201.06,166.5a3.308,3.308,0,0,0-5.061,2.8v33.076a3.308,3.308,0,0,0,5.061,2.8L227.52,188.65a3.308,3.308,0,0,0,0-5.61Zm-24.906,13.375V175.275l16.912,10.57Z" transform="translate(-152.78 -81.847)" fill="#fff"/>
    <path id="Path_111" data-name="Path 111" d="M96.361,61H16.538A16.557,16.557,0,0,0,0,77.538V130.46A16.557,16.557,0,0,0,16.538,147H96.361A16.557,16.557,0,0,0,112.9,130.46V77.538A16.557,16.557,0,0,0,96.361,61Zm9.923,69.46a9.934,9.934,0,0,1-9.923,9.923H16.538a9.934,9.934,0,0,1-9.923-9.923V77.538a9.934,9.934,0,0,1,9.923-9.923H96.361a9.934,9.934,0,0,1,9.923,9.923Z" fill="#fff"/>
  </g>
</svg>
